<svg width="21" height="26" viewBox="0 0 21 26" fill="none" xmlns="http://www.w3.org/2000/svg">
<path d="M12.6667 1V5.66667C12.6667 6.2855 12.9125 6.879 13.3501 7.31658C13.7877 7.75417 14.3812 8 15 8H19.6667" stroke="#818992" stroke-width="1.75" stroke-linecap="round" stroke-linejoin="round"/>
<path d="M13.8333 19.6667C13.8333 18.7384 13.4646 17.8482 12.8082 17.1918C12.1518 16.5354 11.2616 16.1667 10.3333 16.1667C9.40508 16.1667 8.51484 16.5354 7.85846 17.1918C7.20208 17.8482 6.83334 18.7384 6.83334 19.6667" stroke="#818992" stroke-width="1.75" stroke-linecap="round" stroke-linejoin="round"/>
<path d="M13.8333 1H3.33333C2.71449 1 2.121 1.24583 1.68342 1.68342C1.24583 2.121 1 2.71449 1 3.33333V22C1 22.6188 1.24583 23.2123 1.68342 23.6499C2.121 24.0875 2.71449 24.3333 3.33333 24.3333H17.3333C17.9522 24.3333 18.5457 24.0875 18.9832 23.6499C19.4208 23.2123 19.6667 22.6188 19.6667 22V6.83333L13.8333 1Z" stroke="#818992" stroke-width="1.75" stroke-linecap="round" stroke-linejoin="round"/>
<path d="M10.3333 16.1667C11.622 16.1667 12.6667 15.122 12.6667 13.8333C12.6667 12.5447 11.622 11.5 10.3333 11.5C9.04467 11.5 8 12.5447 8 13.8333C8 15.122 9.04467 16.1667 10.3333 16.1667Z" stroke="#818992" stroke-width="1.75" stroke-linecap="round" stroke-linejoin="round"/>
</svg>
