<svg width="25" height="25" viewBox="0 0 25 25" fill="none" xmlns="http://www.w3.org/2000/svg">
<path d="M8.51276 1H2.25213C1.5606 1 1 1.5606 1 2.25213V8.51276C1 9.2043 1.5606 9.76489 2.25213 9.76489H8.51276C9.2043 9.76489 9.76489 9.2043 9.76489 8.51276V2.25213C9.76489 1.5606 9.2043 1 8.51276 1Z" stroke="#818992" stroke-width="1.75" stroke-linecap="round" stroke-linejoin="round"/>
<path d="M22.2862 1H16.0255C15.334 1 14.7734 1.5606 14.7734 2.25213V8.51276C14.7734 9.2043 15.334 9.76489 16.0255 9.76489H22.2862C22.9777 9.76489 23.5383 9.2043 23.5383 8.51276V2.25213C23.5383 1.5606 22.9777 1 22.2862 1Z" stroke="#818992" stroke-width="1.75" stroke-linecap="round" stroke-linejoin="round"/>
<path d="M22.2862 14.7734H16.0255C15.334 14.7734 14.7734 15.334 14.7734 16.0255V22.2862C14.7734 22.9777 15.334 23.5383 16.0255 23.5383H22.2862C22.9777 23.5383 23.5383 22.9777 23.5383 22.2862V16.0255C23.5383 15.334 22.9777 14.7734 22.2862 14.7734Z" stroke="#818992" stroke-width="1.75" stroke-linecap="round" stroke-linejoin="round"/>
<path d="M8.51276 14.7734H2.25213C1.5606 14.7734 1 15.334 1 16.0255V22.2862C1 22.9777 1.5606 23.5383 2.25213 23.5383H8.51276C9.2043 23.5383 9.76489 22.9777 9.76489 22.2862V16.0255C9.76489 15.334 9.2043 14.7734 8.51276 14.7734Z" stroke="#818992" stroke-width="1.75" stroke-linecap="round" stroke-linejoin="round"/>
</svg>
