<svg width="26" height="25" viewBox="0 0 26 25" fill="none" xmlns="http://www.w3.org/2000/svg">
<path d="M17.3333 8C19.1899 8 20.9703 8.7375 22.2831 10.0503C23.5958 11.363 24.3333 13.1435 24.3333 15V23.1667H19.6667V15C19.6667 14.3812 19.4208 13.7877 18.9833 13.3501C18.5457 12.9125 17.9522 12.6667 17.3333 12.6667C16.7145 12.6667 16.121 12.9125 15.6834 13.3501C15.2458 13.7877 15 14.3812 15 15V23.1667H10.3333V15C10.3333 13.1435 11.0708 11.363 12.3836 10.0503C13.6963 8.7375 15.4768 8 17.3333 8Z" stroke="#818992" stroke-width="1.75" stroke-linecap="round" stroke-linejoin="round"/>
<path d="M5.66667 9.16669H1V23.1667H5.66667V9.16669Z" stroke="#818992" stroke-width="1.75" stroke-linecap="round" stroke-linejoin="round"/>
<path d="M3.33333 5.66667C4.622 5.66667 5.66667 4.622 5.66667 3.33333C5.66667 2.04467 4.622 1 3.33333 1C2.04467 1 1 2.04467 1 3.33333C1 4.622 2.04467 5.66667 3.33333 5.66667Z" stroke="#818992" stroke-width="1.75" stroke-linecap="round" stroke-linejoin="round"/>
</svg>
