<svg width="24" height="22" viewBox="0 0 24 22" fill="none" xmlns="http://www.w3.org/2000/svg">
<path d="M12.0571 5.42285V20.9028" stroke="#818992" stroke-width="1.75" stroke-linecap="round" stroke-linejoin="round"/>
<path d="M16.4799 10.9514H18.6914" stroke="#818992" stroke-width="1.75" stroke-linecap="round" stroke-linejoin="round"/>
<path d="M16.4799 6.52853H18.6914" stroke="#818992" stroke-width="1.75" stroke-linecap="round" stroke-linejoin="round"/>
<path d="M2.10571 17.5857C1.81246 17.5857 1.53122 17.4692 1.32386 17.2618C1.11649 17.0545 1 16.7732 1 16.48V2.10571C1 1.81246 1.11649 1.53122 1.32386 1.32386C1.53122 1.11649 1.81246 1 2.10571 1H7.63428C8.80729 1 9.93226 1.46598 10.7617 2.29542C11.5911 3.12487 12.0571 4.24984 12.0571 5.42285C12.0571 4.24984 12.5231 3.12487 13.3525 2.29542C14.182 1.46598 15.307 1 16.48 1H22.0085C22.3018 1 22.583 1.11649 22.7904 1.32386C22.9978 1.53122 23.1143 1.81246 23.1143 2.10571V16.48C23.1143 16.7732 22.9978 17.0545 22.7904 17.2618C22.583 17.4692 22.3018 17.5857 22.0085 17.5857H15.3743C14.4945 17.5857 13.6508 17.9352 13.0287 18.5573C12.4066 19.1793 12.0571 20.0231 12.0571 20.9028C12.0571 20.0231 11.7076 19.1793 11.0856 18.5573C10.4635 17.9352 9.61975 17.5857 8.73999 17.5857H2.10571Z" stroke="#818992" stroke-width="1.75" stroke-linecap="round" stroke-linejoin="round"/>
<path d="M5.42281 10.9514H7.63423" stroke="#818992" stroke-width="1.75" stroke-linecap="round" stroke-linejoin="round"/>
<path d="M5.42281 6.52853H7.63423" stroke="#818992" stroke-width="1.75" stroke-linecap="round" stroke-linejoin="round"/>
</svg>
