<svg width="24" height="24" viewBox="0 0 24 24" fill="none" xmlns="http://www.w3.org/2000/svg">
<path d="M14.861 22.7698C14.903 22.8745 14.976 22.9639 15.0703 23.0258C15.1645 23.0878 15.2755 23.1195 15.3882 23.1166C15.501 23.1137 15.6102 23.0764 15.7012 23.0097C15.7921 22.9429 15.8605 22.85 15.8971 22.7433L23.0842 1.73474C23.1196 1.63677 23.1263 1.53075 23.1037 1.42907C23.081 1.3274 23.0298 1.23429 22.9562 1.16063C22.8825 1.08697 22.7894 1.03582 22.6877 1.01315C22.5861 0.990475 22.48 0.997229 22.3821 1.03262L1.37352 8.21975C1.26681 8.25634 1.17385 8.3247 1.10712 8.41565C1.04038 8.5066 1.00307 8.61578 1.00018 8.72855C0.997293 8.84132 1.02897 8.95227 1.09096 9.04652C1.15295 9.14077 1.24229 9.21379 1.34698 9.2558L10.1153 12.772C10.3925 12.8829 10.6443 13.0489 10.8556 13.2598C11.0669 13.4708 11.2334 13.7223 11.3448 13.9993L14.861 22.7698Z" stroke="#818992" stroke-width="1.75" stroke-linecap="round" stroke-linejoin="round"/>
<path d="M22.9526 1.16525L10.8561 13.2606" stroke="#818992" stroke-width="1.75" stroke-linecap="round" stroke-linejoin="round"/>
</svg>
