<svg width="25" height="26" viewBox="0 0 25 26" fill="none" xmlns="http://www.w3.org/2000/svg">
<path d="M16.0255 24.7897V14.7727C16.0255 14.4406 15.8936 14.1221 15.6588 13.8873C15.424 13.6525 15.1055 13.5206 14.7734 13.5206H9.76488C9.4328 13.5206 9.11431 13.6525 8.8795 13.8873C8.64468 14.1221 8.51276 14.4406 8.51276 14.7727V24.7897" stroke="#818992" stroke-width="1.75" stroke-linecap="round" stroke-linejoin="round"/>
<path d="M1 11.0164C0.999913 10.6521 1.0793 10.2922 1.23263 9.96171C1.38596 9.63126 1.60953 9.33825 1.88776 9.10311L10.6526 1.5916C11.1046 1.20959 11.6773 1 12.2691 1C12.8609 1 13.4336 1.20959 13.8856 1.5916L22.6505 9.10311C22.9287 9.33825 23.1523 9.63126 23.3056 9.96171C23.459 10.2922 23.5383 10.6521 23.5383 11.0164V22.2855C23.5383 22.9497 23.2744 23.5866 22.8048 24.0563C22.3351 24.5259 21.6982 24.7897 21.034 24.7897H3.50425C2.84008 24.7897 2.20312 24.5259 1.73348 24.0563C1.26384 23.5866 1 22.9497 1 22.2855V11.0164Z" stroke="#818992" stroke-width="1.75" stroke-linecap="round" stroke-linejoin="round"/>
</svg>
